<?xml version="1.0" encoding="UTF-8"?>
<svg width="62px" height="39px" viewBox="0 0 62 39" version="1.1" xmlns="http://www.w3.org/2000/svg" xmlns:xlink="http://www.w3.org/1999/xlink">
    <!-- Generator: Sketch 45.2 (43514) - http://www.bohemiancoding.com/sketch -->
    <title>Imported Layers</title>
    <desc>Created with Sketch.</desc>
    <defs>
        <path d="M94.9947004,34.0562674 L103.284198,34.0562674 L99.1682696,51.1699886 L90.8872031,51.1699886 L94.9947004,34.0562674 L94.9947004,34.0562674 Z M84.3722961,34.0562674 L92.6507565,34.0562674 L88.638458,50.447007 C87.6660815,54.4189707 84.8677589,58.6238099 79.1152085,58.6238099 L66.6915392,58.6236595 L68.6010333,53.0662179 L74.3054478,53.0657668 C77.0002935,53.0656165 80.003577,51.6130384 80.6623035,48.9658644 L84.3722961,34.0562674 L84.3722961,34.0562674 Z M74.8611572,28 L70.8850373,44.4265203 C70.4991833,46.0210187 69.9546648,46.939291 68.0212559,46.939291 L60.7702064,46.939291 C59.1259198,46.939291 59.1673105,45.98614 59.5056417,44.6142941 L60.6247255,40.0767541 C60.9038832,38.9451503 61.2771667,38.4410627 62.8119977,38.4410627 L69.9545115,38.4413634 L71.0181009,34.0562674 L57.1442217,34.0562674 C53.8568748,34.0562674 51.8728773,35.6109259 51.0965704,38.811649 L49.2358254,46.4843643 C48.4573724,49.6948596 49.6615371,51.1696879 52.0316952,51.1696879 L72.2993752,51.1696879 C76.5534265,51.1696879 78.2030786,49.5386571 78.9465794,46.4529434 L83.3933277,28 L74.8611572,28 Z" id="path-1"></path>
        <filter x="-12.9%" y="-16.3%" width="125.8%" height="145.7%" filterUnits="objectBoundingBox" id="filter-2">
            <feOffset dx="0" dy="2" in="SourceAlpha" result="shadowOffsetOuter1"></feOffset>
            <feGaussianBlur stdDeviation="2" in="shadowOffsetOuter1" result="shadowBlurOuter1"></feGaussianBlur>
            <feColorMatrix values="0 0 0 0 0   0 0 0 0 0   0 0 0 0 0  0 0 0 0.5 0" type="matrix" in="shadowBlurOuter1"></feColorMatrix>
        </filter>
    </defs>
    <g id="Page-1" stroke="none" stroke-width="1" fill="none" fill-rule="evenodd">
        <g id="NPI供应链监控平台_2" transform="translate(-45.000000, -26.000000)">
            <g id="topbar">
                <g id="Group-24">
                    <g id="Imported-Layers">
                        <use fill="black" fill-opacity="1" filter="url(#filter-2)" xlink:href="#path-1"></use>
                        <use fill="#FFFFFF" fill-rule="evenodd" xlink:href="#path-1"></use>
                    </g>
                </g>
            </g>
        </g>
    </g>
</svg>